#define stretcharrow_width 10
#define stretcharrow_height 10
static unsigned char stretcharrow_bits[] = {
   0x3f, 0x00, 0x07, 0x00, 0x0f, 0x00, 0x1d, 0x00, 0x39, 0x02, 0x71, 0x02,
   0xe0, 0x02, 0xc0, 0x03, 0x80, 0x03, 0xf0, 0x03};
